<svg width="26" height="27" viewBox="0 0 26 27" fill="none" xmlns="http://www.w3.org/2000/svg">
<path d="M20.5919 12.5688H5.67312C4.49606 12.5688 3.54187 13.523 3.54187 14.7001V22.1595C3.54187 23.3366 4.49606 24.2907 5.67312 24.2907H20.5919C21.769 24.2907 22.7232 23.3366 22.7232 22.1595V14.7001C22.7232 13.523 21.769 12.5688 20.5919 12.5688Z" stroke="white" stroke-linecap="round" stroke-linejoin="round"/>
<path d="M7.80432 12.5689V8.30641C7.80432 6.8933 8.36568 5.53807 9.3649 4.53885C10.3641 3.53963 11.7193 2.97827 13.1325 2.97827C14.5456 2.97827 15.9008 3.53963 16.9 4.53885C17.8992 5.53807 18.4606 6.8933 18.4606 8.30641V12.5689" stroke="white" stroke-linecap="round" stroke-linejoin="round"/>
</svg>
